<svg width="16" height="17" viewBox="0 0 16 17" fill="none" xmlns="http://www.w3.org/2000/svg">
<path d="M2.56302 5.48121C1.81233 4.73053 1.81233 3.51341 2.56302 2.76273C3.31371 2.01203 4.53082 2.01203 5.28151 2.76273L13.437 10.9182C14.1877 11.6689 14.1877 12.886 13.437 13.6367C12.6863 14.3874 11.4692 14.3874 10.7185 13.6367L2.56302 5.48121Z" stroke="#8593A3" stroke-width="1.5"/>
<path d="M4 6.86637L6.66667 4.19971" stroke="#8593A3" stroke-width="1.5" stroke-linecap="round"/>
<path d="M10.7333 1.738C10.8407 1.46494 11.2257 1.46494 11.3329 1.738L11.6199 2.46818C11.6527 2.55155 11.7184 2.61754 11.8015 2.65042L12.5289 2.9384C12.801 3.0461 12.801 3.43254 12.5289 3.54023L11.8015 3.82822C11.7184 3.8611 11.6527 3.92708 11.6199 4.01045L11.333 4.74064C11.2257 5.0137 10.8407 5.0137 10.7333 4.74064L10.4465 4.01045C10.4137 3.92708 10.3479 3.8611 10.2649 3.82822L9.53739 3.54023C9.26533 3.43254 9.26533 3.0461 9.53739 2.9384L10.2649 2.65042C10.3479 2.61754 10.4137 2.55155 10.4465 2.46818L10.7333 1.738Z" stroke="#8593A3"/>
<path d="M13.3115 6.28633C13.4187 6.01328 13.8038 6.01328 13.9111 6.28633L14.0157 6.55257C14.0485 6.63593 14.1142 6.70193 14.1973 6.7348L14.4625 6.8398C14.7345 6.9475 14.7345 7.33397 14.4625 7.44163L14.1973 7.54663C14.1142 7.5795 14.0485 7.6455 14.0157 7.72883L13.9111 7.9951C13.8038 8.26817 13.4187 8.26817 13.3115 7.9951L13.2069 7.72883C13.1741 7.6455 13.1083 7.5795 13.0253 7.54663L12.76 7.44163C12.488 7.33397 12.488 6.9475 12.76 6.8398L13.0253 6.7348C13.1083 6.70193 13.1741 6.63593 13.2069 6.55257L13.3115 6.28633Z" stroke="#8593A3"/>
<path d="M3.42212 10.4045C3.52942 10.1314 3.91444 10.1314 4.02173 10.4045L4.12634 10.6707C4.1591 10.7541 4.22485 10.8201 4.30791 10.853L4.57316 10.958C4.84521 11.0656 4.84521 11.4521 4.57316 11.5598L4.30791 11.6648C4.22485 11.6976 4.1591 11.7636 4.12634 11.847L4.02173 12.1132C3.91444 12.3863 3.52942 12.3863 3.42212 12.1132L3.31751 11.847C3.28475 11.7636 3.219 11.6976 3.13594 11.6648L2.8707 11.5598C2.59864 11.4521 2.59864 11.0656 2.8707 10.958L3.13594 10.853C3.219 10.8201 3.28475 10.7541 3.31751 10.6707L3.42212 10.4045Z" stroke="#8593A3"/>
</svg>
