<svg width="16" height="17" viewBox="0 0 16 17" fill="none" xmlns="http://www.w3.org/2000/svg">
<path d="M10.3333 9.86637C10.3333 10.2346 10.0349 10.533 9.66667 10.533C9.29847 10.533 9 10.2346 9 9.86637C9 9.49817 9.29847 9.19971 9.66667 9.19971C10.0349 9.19971 10.3333 9.49817 10.3333 9.86637Z" fill="#5E6874"/>
<path d="M6.99996 6.53337C6.99996 6.90157 6.70149 7.20003 6.33329 7.20003C5.96511 7.20003 5.66663 6.90157 5.66663 6.53337C5.66663 6.16518 5.96511 5.8667 6.33329 5.8667C6.70149 5.8667 6.99996 6.16518 6.99996 6.53337Z" fill="#5E6874"/>
<path fill-rule="evenodd" clip-rule="evenodd" d="M10.3535 5.84615C10.5488 6.04141 10.5488 6.358 10.3535 6.55326L6.35355 10.5532C6.15829 10.7485 5.8417 10.7485 5.64644 10.5532C5.45118 10.358 5.45118 10.0414 5.64644 9.84617L9.64646 5.84615C9.84173 5.65089 10.1583 5.65089 10.3535 5.84615Z" fill="#5E6874"/>
<path fill-rule="evenodd" clip-rule="evenodd" d="M7.96171 1.0332H8.03825C9.57718 1.0332 10.7832 1.03319 11.7242 1.1597C12.6873 1.2892 13.4474 1.55942 14.0439 2.15596C14.6404 2.7525 14.9106 3.51252 15.0402 4.47568C15.1666 5.41666 15.1666 6.62269 15.1666 8.1616V8.23814C15.1666 9.77707 15.1666 10.9831 15.0402 11.9241C14.9106 12.8872 14.6404 13.6473 14.0439 14.2438C13.4474 14.8403 12.6873 15.1105 11.7242 15.2401C10.7832 15.3665 9.57718 15.3665 8.03825 15.3665H7.96171C6.4228 15.3665 5.21677 15.3665 4.27579 15.2401C3.31263 15.1105 2.55261 14.8403 1.95607 14.2438C1.35953 13.6473 1.08931 12.8872 0.959813 11.9241C0.8333 10.9831 0.833306 9.77707 0.833313 8.23814V8.1616C0.833306 6.62269 0.8333 5.41666 0.959813 4.47568C1.08931 3.51252 1.35953 2.7525 1.95607 2.15596C2.55261 1.55942 3.31263 1.2892 4.27579 1.1597C5.21677 1.03319 6.4228 1.0332 7.96171 1.0332ZM4.40903 2.15078C3.55676 2.26537 3.04295 2.4833 2.66318 2.86307C2.28341 3.24284 2.06548 3.75665 1.95089 4.60892C1.83437 5.47558 1.83331 6.61439 1.83331 8.19987C1.83331 9.78534 1.83437 10.9241 1.95089 11.7908C2.06548 12.6431 2.28341 13.1569 2.66318 13.5367C3.04295 13.9165 3.55676 14.1344 4.40903 14.2489C5.27569 14.3655 6.4145 14.3665 7.99998 14.3665C9.58545 14.3665 10.7242 14.3655 11.5909 14.2489C12.4432 14.1344 12.957 13.9165 13.3368 13.5367C13.7166 13.1569 13.9345 12.6431 14.049 11.7908C14.1656 10.9241 14.1666 9.78534 14.1666 8.19987C14.1666 6.61439 14.1656 5.47558 14.049 4.60892C13.9345 3.75665 13.7166 3.24284 13.3368 2.86307C12.957 2.4833 12.4432 2.26537 11.5909 2.15078C10.7242 2.03426 9.58545 2.0332 7.99998 2.0332C6.4145 2.0332 5.27569 2.03426 4.40903 2.15078Z" fill="#5E6874"/>
</svg>
