<svg width="16" height="17" viewBox="0 0 16 17" fill="none" xmlns="http://www.w3.org/2000/svg">
<g clip-path="url(#clip0_1534_58915)">
<path d="M8 15.5329C9.4504 15.5329 10.8682 15.1028 12.0742 14.297C13.2801 13.4912 14.2201 12.3459 14.7751 11.0059C15.3302 9.6659 15.4754 8.19141 15.1924 6.76889C14.9095 5.34636 14.211 4.03968 13.1855 3.0141C12.1599 1.98851 10.8532 1.29008 9.43067 1.00712C8.00814 0.724164 6.53365 0.869388 5.19366 1.42443C3.85367 1.97947 2.70836 2.91941 1.90256 4.12537C1.09676 5.33133 0.666672 6.74915 0.666672 8.19955C0.662259 9.16381 0.848928 10.1194 1.2159 11.0111C1.58287 11.9028 2.12287 12.713 2.80472 13.3948C3.48656 14.0767 4.29673 14.6167 5.18845 14.9837C6.08016 15.3506 7.03574 15.5373 8 15.5329ZM8 2.19955C9.18669 2.19955 10.3467 2.55144 11.3334 3.21073C12.3201 3.87002 13.0892 4.80709 13.5433 5.90345C13.9974 6.9998 14.1162 8.2062 13.8847 9.37009C13.6532 10.534 13.0818 11.6031 12.2426 12.4422C11.4035 13.2813 10.3344 13.8527 9.17055 14.0843C8.00666 14.3158 6.80026 14.197 5.7039 13.7428C4.60755 13.2887 3.67048 12.5197 3.01119 11.533C2.3519 10.5463 2.00001 9.38624 2.00001 8.19955C2.00876 6.61095 2.64371 5.0899 3.76704 3.96658C4.89036 2.84325 6.41141 2.2083 8 2.19955Z" fill="#5E6874"/>
<path d="M8.00001 9.53304C8.17682 9.53304 8.34639 9.4628 8.47141 9.33778C8.59644 9.21275 8.66668 9.04318 8.66668 8.86637V4.86637C8.66668 4.68956 8.59644 4.51999 8.47141 4.39497C8.34639 4.26995 8.17682 4.19971 8.00001 4.19971C7.8232 4.19971 7.65363 4.26995 7.52861 4.39497C7.40358 4.51999 7.33334 4.68956 7.33334 4.86637V8.86637C7.33334 9.04318 7.40358 9.21275 7.52861 9.33778C7.65363 9.4628 7.8232 9.53304 8.00001 9.53304Z" fill="#5E6874"/>
<path d="M8.00001 12.1995C8.3682 12.1995 8.66668 11.9011 8.66668 11.5329C8.66668 11.1647 8.3682 10.8662 8.00001 10.8662C7.63182 10.8662 7.33334 11.1647 7.33334 11.5329C7.33334 11.9011 7.63182 12.1995 8.00001 12.1995Z" fill="#5E6874"/>
</g>
<defs>
<clipPath id="clip0_1534_58915">
<rect width="16" height="16" fill="white" transform="translate(0 0.199707)"/>
</clipPath>
</defs>
</svg>
